<mxfile host="app.diagrams.net" modified="2023-04-18T13:40:03.020Z" agent="5.0 (Windows NT 10.0; Win64; x64) AppleWebKit/537.36 (KHTML, like Gecko) Chrome/112.0.0.0 Safari/537.36" etag="LbI19Y7vT7XBb7eAJM-o" version="21.0.8" type="github">
  <diagram name="페이지-1" id="5oIMDEiAWVA81nM4-qU_">
    <mxGraphModel dx="934" dy="512" grid="1" gridSize="10" guides="1" tooltips="1" connect="1" arrows="1" fold="1" page="1" pageScale="1" pageWidth="827" pageHeight="1169" math="0" shadow="0">
      <root>
        <mxCell id="0" />
        <mxCell id="1" parent="0" />
        <mxCell id="IiOLSRns-qSP6jmbHrpW-1" value="" style="rounded=0;whiteSpace=wrap;html=1;" parent="1" vertex="1">
          <mxGeometry x="12.63" y="87" width="730" height="443" as="geometry" />
        </mxCell>
        <mxCell id="8RyoDE9TQT_cSfFY1OMw-8" value="" style="rounded=0;whiteSpace=wrap;html=1;" vertex="1" parent="1">
          <mxGeometry x="26" y="100" width="174" height="180" as="geometry" />
        </mxCell>
        <mxCell id="8RyoDE9TQT_cSfFY1OMw-2" value="&lt;font style=&quot;font-size: 16px;&quot;&gt;상태명&lt;/font&gt;" style="swimlane;childLayout=stackLayout;horizontal=1;startSize=50;horizontalStack=0;rounded=1;fontSize=14;fontStyle=0;strokeWidth=2;resizeParent=0;resizeLast=1;shadow=0;dashed=0;align=center;arcSize=4;whiteSpace=wrap;html=1;" vertex="1" parent="1">
          <mxGeometry x="40" y="110" width="150" height="140" as="geometry">
            <mxRectangle x="40" y="110" width="80" height="50" as="alternateBounds" />
          </mxGeometry>
        </mxCell>
        <mxCell id="8RyoDE9TQT_cSfFY1OMw-3" value="&lt;font style=&quot;font-size: 14px;&quot;&gt;entry / 행동명&lt;br&gt;do / 액티비티명&lt;br&gt;exit / 행동명&lt;/font&gt;" style="align=left;strokeColor=none;fillColor=none;spacingLeft=4;fontSize=12;verticalAlign=top;resizable=0;rotatable=0;part=1;html=1;" vertex="1" parent="8RyoDE9TQT_cSfFY1OMw-2">
          <mxGeometry y="50" width="150" height="90" as="geometry" />
        </mxCell>
        <mxCell id="8RyoDE9TQT_cSfFY1OMw-9" value="상태" style="text;html=1;strokeColor=none;fillColor=none;align=center;verticalAlign=middle;whiteSpace=wrap;rounded=0;fontSize=11;fontStyle=1" vertex="1" parent="1">
          <mxGeometry x="83" y="250" width="60" height="30" as="geometry" />
        </mxCell>
        <mxCell id="8RyoDE9TQT_cSfFY1OMw-10" value="" style="rounded=0;whiteSpace=wrap;html=1;" vertex="1" parent="1">
          <mxGeometry x="207" y="100" width="174" height="180" as="geometry" />
        </mxCell>
        <mxCell id="8RyoDE9TQT_cSfFY1OMw-11" value="&lt;font style=&quot;font-size: 16px;&quot;&gt;상태명&lt;/font&gt;" style="swimlane;childLayout=stackLayout;horizontal=1;startSize=30;horizontalStack=0;rounded=1;fontSize=14;fontStyle=0;strokeWidth=2;resizeParent=0;resizeLast=1;shadow=0;dashed=0;align=center;arcSize=4;whiteSpace=wrap;html=1;" vertex="1" parent="1">
          <mxGeometry x="221" y="138" width="150" height="80" as="geometry">
            <mxRectangle x="40" y="110" width="80" height="50" as="alternateBounds" />
          </mxGeometry>
        </mxCell>
        <mxCell id="8RyoDE9TQT_cSfFY1OMw-13" value="컴포지트 상태" style="text;html=1;strokeColor=none;fillColor=none;align=center;verticalAlign=middle;whiteSpace=wrap;rounded=0;fontSize=10;fontStyle=1" vertex="1" parent="1">
          <mxGeometry x="258" y="235" width="74.75" height="30" as="geometry" />
        </mxCell>
        <mxCell id="8RyoDE9TQT_cSfFY1OMw-28" style="edgeStyle=orthogonalEdgeStyle;rounded=0;orthogonalLoop=1;jettySize=auto;html=1;entryX=0;entryY=0.5;entryDx=0;entryDy=0;endArrow=open;endFill=0;" edge="1" parent="1" source="8RyoDE9TQT_cSfFY1OMw-14" target="8RyoDE9TQT_cSfFY1OMw-24">
          <mxGeometry relative="1" as="geometry" />
        </mxCell>
        <mxCell id="8RyoDE9TQT_cSfFY1OMw-14" value="" style="strokeWidth=2;html=1;shape=mxgraph.flowchart.start_2;whiteSpace=wrap;fillColor=#000000;" vertex="1" parent="1">
          <mxGeometry x="228.75" y="180" width="21" height="20" as="geometry" />
        </mxCell>
        <mxCell id="8RyoDE9TQT_cSfFY1OMw-15" value="" style="rounded=0;whiteSpace=wrap;html=1;" vertex="1" parent="1">
          <mxGeometry x="389.38" y="100" width="174" height="180" as="geometry" />
        </mxCell>
        <mxCell id="8RyoDE9TQT_cSfFY1OMw-16" value="&lt;font style=&quot;font-size: 16px;&quot;&gt;상태명&lt;/font&gt;" style="swimlane;childLayout=stackLayout;horizontal=1;startSize=40;horizontalStack=0;rounded=1;fontSize=14;fontStyle=0;strokeWidth=2;resizeParent=0;resizeLast=1;shadow=0;dashed=0;align=center;arcSize=4;whiteSpace=wrap;html=1;" vertex="1" parent="1">
          <mxGeometry x="403.38" y="110" width="150" height="140" as="geometry">
            <mxRectangle x="40" y="110" width="80" height="50" as="alternateBounds" />
          </mxGeometry>
        </mxCell>
        <mxCell id="8RyoDE9TQT_cSfFY1OMw-17" value="직교상태" style="text;html=1;strokeColor=none;fillColor=none;align=center;verticalAlign=middle;whiteSpace=wrap;rounded=0;fontSize=10;fontStyle=1" vertex="1" parent="1">
          <mxGeometry x="448.38" y="250" width="60" height="30" as="geometry" />
        </mxCell>
        <mxCell id="8RyoDE9TQT_cSfFY1OMw-19" value="" style="rounded=0;whiteSpace=wrap;html=1;" vertex="1" parent="1">
          <mxGeometry x="570.5" y="100" width="149.5" height="180" as="geometry" />
        </mxCell>
        <mxCell id="8RyoDE9TQT_cSfFY1OMw-20" value="상태명 :&lt;br&gt;스테이트 머신명" style="rounded=1;whiteSpace=wrap;html=1;" vertex="1" parent="1">
          <mxGeometry x="583" y="142" width="120" height="60" as="geometry" />
        </mxCell>
        <mxCell id="8RyoDE9TQT_cSfFY1OMw-21" value="" style="verticalLabelPosition=bottom;verticalAlign=top;html=1;shape=mxgraph.flowchart.or;" vertex="1" parent="1">
          <mxGeometry x="691" y="157" width="25" height="25" as="geometry" />
        </mxCell>
        <mxCell id="8RyoDE9TQT_cSfFY1OMw-22" value="" style="ellipse;whiteSpace=wrap;html=1;" vertex="1" parent="1">
          <mxGeometry x="632.75" y="190" width="25" height="25" as="geometry" />
        </mxCell>
        <mxCell id="8RyoDE9TQT_cSfFY1OMw-23" value="서브머신 상태" style="text;html=1;strokeColor=none;fillColor=none;align=center;verticalAlign=middle;whiteSpace=wrap;rounded=0;fontSize=10;fontStyle=1" vertex="1" parent="1">
          <mxGeometry x="603.88" y="250" width="82.75" height="30" as="geometry" />
        </mxCell>
        <mxCell id="8RyoDE9TQT_cSfFY1OMw-29" style="edgeStyle=orthogonalEdgeStyle;rounded=0;orthogonalLoop=1;jettySize=auto;html=1;exitX=1;exitY=0.5;exitDx=0;exitDy=0;entryX=0;entryY=0.5;entryDx=0;entryDy=0;endArrow=open;endFill=0;" edge="1" parent="1" source="8RyoDE9TQT_cSfFY1OMw-24" target="8RyoDE9TQT_cSfFY1OMw-25">
          <mxGeometry relative="1" as="geometry" />
        </mxCell>
        <mxCell id="8RyoDE9TQT_cSfFY1OMw-24" value="상태명" style="rounded=1;whiteSpace=wrap;html=1;" vertex="1" parent="1">
          <mxGeometry x="268.63" y="177.5" width="54.75" height="25" as="geometry" />
        </mxCell>
        <mxCell id="8RyoDE9TQT_cSfFY1OMw-25" value="" style="ellipse;html=1;shape=endState;fillColor=#000000;strokeColor=#000000;" vertex="1" parent="1">
          <mxGeometry x="341.75" y="181" width="20" height="20" as="geometry" />
        </mxCell>
        <mxCell id="8RyoDE9TQT_cSfFY1OMw-31" value="" style="endArrow=none;dashed=1;html=1;rounded=0;" edge="1" parent="1">
          <mxGeometry width="50" height="50" relative="1" as="geometry">
            <mxPoint x="551" y="198" as="sourcePoint" />
            <mxPoint x="404" y="198" as="targetPoint" />
          </mxGeometry>
        </mxCell>
        <mxCell id="8RyoDE9TQT_cSfFY1OMw-48" style="edgeStyle=orthogonalEdgeStyle;rounded=0;orthogonalLoop=1;jettySize=auto;html=1;entryX=0;entryY=0.5;entryDx=0;entryDy=0;endArrow=open;endFill=0;" edge="1" parent="1" source="8RyoDE9TQT_cSfFY1OMw-49" target="8RyoDE9TQT_cSfFY1OMw-51">
          <mxGeometry relative="1" as="geometry" />
        </mxCell>
        <mxCell id="8RyoDE9TQT_cSfFY1OMw-49" value="" style="strokeWidth=2;html=1;shape=mxgraph.flowchart.start_2;whiteSpace=wrap;fillColor=#000000;" vertex="1" parent="1">
          <mxGeometry x="410" y="213.5" width="21" height="20" as="geometry" />
        </mxCell>
        <mxCell id="8RyoDE9TQT_cSfFY1OMw-50" style="edgeStyle=orthogonalEdgeStyle;rounded=0;orthogonalLoop=1;jettySize=auto;html=1;exitX=1;exitY=0.5;exitDx=0;exitDy=0;entryX=0;entryY=0.5;entryDx=0;entryDy=0;endArrow=open;endFill=0;" edge="1" parent="1" source="8RyoDE9TQT_cSfFY1OMw-51" target="8RyoDE9TQT_cSfFY1OMw-52">
          <mxGeometry relative="1" as="geometry" />
        </mxCell>
        <mxCell id="8RyoDE9TQT_cSfFY1OMw-51" value="상태명" style="rounded=1;whiteSpace=wrap;html=1;" vertex="1" parent="1">
          <mxGeometry x="449.88" y="211" width="54.75" height="25" as="geometry" />
        </mxCell>
        <mxCell id="8RyoDE9TQT_cSfFY1OMw-52" value="" style="ellipse;html=1;shape=endState;fillColor=#000000;strokeColor=#000000;" vertex="1" parent="1">
          <mxGeometry x="523" y="214.5" width="20" height="20" as="geometry" />
        </mxCell>
        <mxCell id="8RyoDE9TQT_cSfFY1OMw-58" style="edgeStyle=orthogonalEdgeStyle;rounded=0;orthogonalLoop=1;jettySize=auto;html=1;entryX=0;entryY=0.5;entryDx=0;entryDy=0;endArrow=open;endFill=0;" edge="1" parent="1" source="8RyoDE9TQT_cSfFY1OMw-59" target="8RyoDE9TQT_cSfFY1OMw-61">
          <mxGeometry relative="1" as="geometry" />
        </mxCell>
        <mxCell id="8RyoDE9TQT_cSfFY1OMw-59" value="" style="strokeWidth=2;html=1;shape=mxgraph.flowchart.start_2;whiteSpace=wrap;fillColor=#000000;" vertex="1" parent="1">
          <mxGeometry x="411" y="165.5" width="21" height="20" as="geometry" />
        </mxCell>
        <mxCell id="8RyoDE9TQT_cSfFY1OMw-60" style="edgeStyle=orthogonalEdgeStyle;rounded=0;orthogonalLoop=1;jettySize=auto;html=1;exitX=1;exitY=0.5;exitDx=0;exitDy=0;entryX=0;entryY=0.5;entryDx=0;entryDy=0;endArrow=open;endFill=0;" edge="1" parent="1" source="8RyoDE9TQT_cSfFY1OMw-61" target="8RyoDE9TQT_cSfFY1OMw-62">
          <mxGeometry relative="1" as="geometry" />
        </mxCell>
        <mxCell id="8RyoDE9TQT_cSfFY1OMw-61" value="상태명" style="rounded=1;whiteSpace=wrap;html=1;" vertex="1" parent="1">
          <mxGeometry x="450.88" y="163" width="54.75" height="25" as="geometry" />
        </mxCell>
        <mxCell id="8RyoDE9TQT_cSfFY1OMw-62" value="" style="ellipse;html=1;shape=endState;fillColor=#000000;strokeColor=#000000;" vertex="1" parent="1">
          <mxGeometry x="524" y="166.5" width="20" height="20" as="geometry" />
        </mxCell>
        <mxCell id="8RyoDE9TQT_cSfFY1OMw-63" value="" style="rounded=1;whiteSpace=wrap;html=1;" vertex="1" parent="1">
          <mxGeometry x="114" y="289" width="80" height="84" as="geometry" />
        </mxCell>
        <mxCell id="8RyoDE9TQT_cSfFY1OMw-65" value="" style="rounded=1;whiteSpace=wrap;html=1;" vertex="1" parent="1">
          <mxGeometry x="26" y="290" width="82" height="85" as="geometry" />
        </mxCell>
        <mxCell id="8RyoDE9TQT_cSfFY1OMw-67" value="" style="strokeWidth=2;html=1;shape=mxgraph.flowchart.start_2;whiteSpace=wrap;fillColor=#000000;" vertex="1" parent="1">
          <mxGeometry x="54.129999999999995" y="310" width="30" height="30" as="geometry" />
        </mxCell>
        <mxCell id="8RyoDE9TQT_cSfFY1OMw-68" value="" style="ellipse;html=1;shape=endState;fillColor=#000000;strokeColor=#000000;" vertex="1" parent="1">
          <mxGeometry x="140" y="309" width="30" height="30" as="geometry" />
        </mxCell>
        <mxCell id="8RyoDE9TQT_cSfFY1OMw-70" value="개시상태" style="text;html=1;strokeColor=none;fillColor=none;align=center;verticalAlign=middle;whiteSpace=wrap;rounded=0;fontSize=11;fontStyle=1" vertex="1" parent="1">
          <mxGeometry x="41" y="343" width="60" height="30" as="geometry" />
        </mxCell>
        <mxCell id="8RyoDE9TQT_cSfFY1OMw-71" value="종료상태" style="text;html=1;strokeColor=none;fillColor=none;align=center;verticalAlign=middle;whiteSpace=wrap;rounded=0;fontSize=11;fontStyle=1" vertex="1" parent="1">
          <mxGeometry x="127" y="343" width="60" height="30" as="geometry" />
        </mxCell>
        <mxCell id="8RyoDE9TQT_cSfFY1OMw-72" value="" style="rounded=1;whiteSpace=wrap;html=1;" vertex="1" parent="1">
          <mxGeometry x="284" y="288" width="80" height="84" as="geometry" />
        </mxCell>
        <mxCell id="8RyoDE9TQT_cSfFY1OMw-73" value="" style="rounded=1;whiteSpace=wrap;html=1;" vertex="1" parent="1">
          <mxGeometry x="199" y="288" width="80" height="84" as="geometry" />
        </mxCell>
        <mxCell id="8RyoDE9TQT_cSfFY1OMw-76" value="입장점" style="text;html=1;strokeColor=none;fillColor=none;align=center;verticalAlign=middle;whiteSpace=wrap;rounded=0;fontSize=11;fontStyle=1" vertex="1" parent="1">
          <mxGeometry x="210" y="344" width="60" height="30" as="geometry" />
        </mxCell>
        <mxCell id="8RyoDE9TQT_cSfFY1OMw-77" value="퇴장점" style="text;html=1;strokeColor=none;fillColor=none;align=center;verticalAlign=middle;whiteSpace=wrap;rounded=0;fontSize=11;fontStyle=1" vertex="1" parent="1">
          <mxGeometry x="295" y="345" width="60" height="30" as="geometry" />
        </mxCell>
        <mxCell id="8RyoDE9TQT_cSfFY1OMw-79" value="" style="ellipse;whiteSpace=wrap;html=1;" vertex="1" parent="1">
          <mxGeometry x="223" y="310" width="30" height="30" as="geometry" />
        </mxCell>
        <mxCell id="8RyoDE9TQT_cSfFY1OMw-80" value="" style="verticalLabelPosition=bottom;verticalAlign=top;html=1;shape=mxgraph.flowchart.or;" vertex="1" parent="1">
          <mxGeometry x="309" y="310" width="30" height="30" as="geometry" />
        </mxCell>
        <mxCell id="8RyoDE9TQT_cSfFY1OMw-88" value="" style="rounded=1;whiteSpace=wrap;html=1;" vertex="1" parent="1">
          <mxGeometry x="370" y="287" width="130" height="84" as="geometry" />
        </mxCell>
        <mxCell id="8RyoDE9TQT_cSfFY1OMw-89" value="이력상태지시자" style="text;html=1;strokeColor=none;fillColor=none;align=center;verticalAlign=middle;whiteSpace=wrap;rounded=0;fontSize=11;fontStyle=1" vertex="1" parent="1">
          <mxGeometry x="390" y="344" width="95" height="30" as="geometry" />
        </mxCell>
        <mxCell id="8RyoDE9TQT_cSfFY1OMw-91" value="&lt;font style=&quot;font-size: 14px;&quot;&gt;H&lt;/font&gt;" style="ellipse;whiteSpace=wrap;html=1;" vertex="1" parent="1">
          <mxGeometry x="396" y="311" width="30" height="30" as="geometry" />
        </mxCell>
        <mxCell id="8RyoDE9TQT_cSfFY1OMw-92" value="&lt;font style=&quot;font-size: 14px;&quot;&gt;H*&lt;/font&gt;" style="ellipse;whiteSpace=wrap;html=1;" vertex="1" parent="1">
          <mxGeometry x="442" y="311" width="30" height="30" as="geometry" />
        </mxCell>
        <mxCell id="8RyoDE9TQT_cSfFY1OMw-93" value="" style="rounded=1;whiteSpace=wrap;html=1;" vertex="1" parent="1">
          <mxGeometry x="508.25" y="288" width="82" height="85" as="geometry" />
        </mxCell>
        <mxCell id="8RyoDE9TQT_cSfFY1OMw-94" value="" style="strokeWidth=2;html=1;shape=mxgraph.flowchart.start_2;whiteSpace=wrap;fillColor=#000000;" vertex="1" parent="1">
          <mxGeometry x="536.38" y="308" width="30" height="30" as="geometry" />
        </mxCell>
        <mxCell id="8RyoDE9TQT_cSfFY1OMw-95" value="연결점" style="text;html=1;strokeColor=none;fillColor=none;align=center;verticalAlign=middle;whiteSpace=wrap;rounded=0;fontSize=11;fontStyle=1" vertex="1" parent="1">
          <mxGeometry x="523.25" y="341" width="60" height="30" as="geometry" />
        </mxCell>
        <mxCell id="8RyoDE9TQT_cSfFY1OMw-96" value="" style="rounded=1;whiteSpace=wrap;html=1;" vertex="1" parent="1">
          <mxGeometry x="600" y="287" width="117" height="85" as="geometry" />
        </mxCell>
        <mxCell id="8RyoDE9TQT_cSfFY1OMw-97" value="" style="rhombus;whiteSpace=wrap;html=1;" vertex="1" parent="1">
          <mxGeometry x="646" y="313" width="25" height="25" as="geometry" />
        </mxCell>
        <mxCell id="8RyoDE9TQT_cSfFY1OMw-98" value="선택점" style="text;html=1;strokeColor=none;fillColor=none;align=center;verticalAlign=middle;whiteSpace=wrap;rounded=0;fontSize=11;fontStyle=1" vertex="1" parent="1">
          <mxGeometry x="629" y="342" width="60" height="30" as="geometry" />
        </mxCell>
        <mxCell id="8RyoDE9TQT_cSfFY1OMw-100" value="" style="rounded=0;whiteSpace=wrap;html=1;" vertex="1" parent="1">
          <mxGeometry x="28" y="380" width="352" height="140" as="geometry" />
        </mxCell>
        <mxCell id="8RyoDE9TQT_cSfFY1OMw-102" value="" style="rounded=0;whiteSpace=wrap;html=1;" vertex="1" parent="1">
          <mxGeometry x="385" y="379" width="343.5" height="140" as="geometry" />
        </mxCell>
        <mxCell id="8RyoDE9TQT_cSfFY1OMw-103" value="" style="line;strokeWidth=4;direction=south;html=1;perimeter=backbonePerimeter;points=[];outlineConnect=0;" vertex="1" parent="1">
          <mxGeometry x="475" y="394" width="10" height="80" as="geometry" />
        </mxCell>
        <mxCell id="8RyoDE9TQT_cSfFY1OMw-104" value="" style="line;strokeWidth=4;direction=south;html=1;perimeter=backbonePerimeter;points=[];outlineConnect=0;" vertex="1" parent="1">
          <mxGeometry x="627.25" y="394" width="10" height="80" as="geometry" />
        </mxCell>
        <mxCell id="8RyoDE9TQT_cSfFY1OMw-105" value="" style="endArrow=open;html=1;rounded=0;endFill=0;" edge="1" parent="1">
          <mxGeometry width="50" height="50" relative="1" as="geometry">
            <mxPoint x="437" y="434.5" as="sourcePoint" />
            <mxPoint x="481" y="434.5" as="targetPoint" />
          </mxGeometry>
        </mxCell>
        <mxCell id="8RyoDE9TQT_cSfFY1OMw-106" value="" style="endArrow=open;html=1;rounded=0;endFill=0;" edge="1" parent="1">
          <mxGeometry width="50" height="50" relative="1" as="geometry">
            <mxPoint x="480" y="416.5" as="sourcePoint" />
            <mxPoint x="524" y="416.5" as="targetPoint" />
          </mxGeometry>
        </mxCell>
        <mxCell id="8RyoDE9TQT_cSfFY1OMw-107" value="" style="endArrow=open;html=1;rounded=0;endFill=0;" edge="1" parent="1">
          <mxGeometry width="50" height="50" relative="1" as="geometry">
            <mxPoint x="480" y="454.5" as="sourcePoint" />
            <mxPoint x="524" y="454.5" as="targetPoint" />
          </mxGeometry>
        </mxCell>
        <mxCell id="8RyoDE9TQT_cSfFY1OMw-108" value="" style="endArrow=open;html=1;rounded=0;endFill=0;" edge="1" parent="1">
          <mxGeometry width="50" height="50" relative="1" as="geometry">
            <mxPoint x="589.25" y="416" as="sourcePoint" />
            <mxPoint x="633.25" y="416" as="targetPoint" />
          </mxGeometry>
        </mxCell>
        <mxCell id="8RyoDE9TQT_cSfFY1OMw-109" value="" style="endArrow=open;html=1;rounded=0;endFill=0;" edge="1" parent="1">
          <mxGeometry width="50" height="50" relative="1" as="geometry">
            <mxPoint x="589.25" y="456" as="sourcePoint" />
            <mxPoint x="633.25" y="456" as="targetPoint" />
          </mxGeometry>
        </mxCell>
        <mxCell id="8RyoDE9TQT_cSfFY1OMw-110" value="" style="endArrow=open;html=1;rounded=0;endFill=0;" edge="1" parent="1">
          <mxGeometry width="50" height="50" relative="1" as="geometry">
            <mxPoint x="634.25" y="435" as="sourcePoint" />
            <mxPoint x="678.25" y="435" as="targetPoint" />
          </mxGeometry>
        </mxCell>
        <mxCell id="8RyoDE9TQT_cSfFY1OMw-111" value="포크" style="text;html=1;strokeColor=none;fillColor=none;align=center;verticalAlign=middle;whiteSpace=wrap;rounded=0;fontSize=11;fontStyle=1" vertex="1" parent="1">
          <mxGeometry x="435" y="484" width="95" height="30" as="geometry" />
        </mxCell>
        <mxCell id="8RyoDE9TQT_cSfFY1OMw-112" value="조인" style="text;html=1;strokeColor=none;fillColor=none;align=center;verticalAlign=middle;whiteSpace=wrap;rounded=0;fontSize=11;fontStyle=1" vertex="1" parent="1">
          <mxGeometry x="584.75" y="484" width="95" height="30" as="geometry" />
        </mxCell>
        <mxCell id="8RyoDE9TQT_cSfFY1OMw-113" value="트리거 [가드조건] / 이펙트" style="endArrow=open;html=1;rounded=0;exitX=0.154;exitY=0.333;exitDx=0;exitDy=0;exitPerimeter=0;endFill=0;labelPosition=center;verticalLabelPosition=top;align=center;verticalAlign=bottom;" edge="1" parent="1">
          <mxGeometry width="50" height="50" relative="1" as="geometry">
            <mxPoint x="80" y="448.41" as="sourcePoint" />
            <mxPoint x="311" y="448" as="targetPoint" />
          </mxGeometry>
        </mxCell>
        <mxCell id="8RyoDE9TQT_cSfFY1OMw-114" value="표이" style="text;html=1;strokeColor=none;fillColor=none;align=center;verticalAlign=middle;whiteSpace=wrap;rounded=0;fontSize=11;fontStyle=1" vertex="1" parent="1">
          <mxGeometry x="165.25" y="474" width="60" height="30" as="geometry" />
        </mxCell>
      </root>
    </mxGraphModel>
  </diagram>
</mxfile>
